# xmcd CD database file
#
# Track frame offsets:
#	150
#	17723
#	33236
#	50693
#	65801
#	80923
#	95750
#	112650
#	123046
#	136957
#	152923
#	171849
#	186643
#
# Disc length: 2673 seconds
#
# Revision: 0
# Processed by: cddbd v1.5.2PL0 Copyright (c) Steve Scherf et al.
# Submitted via: CDex 1.50Beta7
#
DISCID=b50a6f0d
DTITLE=AS MINEIRINHAS  - 1997
DYEAR=1900
DGENRE=Country
TTITLE0=01) Dono de Tudo 
TTITLE1=02) Nunca Mais te Dou Meu Amor 
TTITLE2=03) Deixa eu Provar 
TTITLE3=04) Agora Tu 
TTITLE4=05) Depois de Você 
TTITLE5=06) Dá Vontade de Morrer 
TTITLE6=07) Coisas do Coração 
TTITLE7=08) Rodeio Show 
TTITLE8=09) A Luz do Dia 
TTITLE9=10) Atenda o Telefone 
TTITLE10=11) E eu te Amei 
TTITLE11=12) Bem Feito Pra Mim 
TTITLE12=13) Você já Virou Saudade 
EXTD=
EXTT0=
EXTT1=
EXTT2=
EXTT3=
EXTT4=
EXTT5=
EXTT6=
EXTT7=
EXTT8=
EXTT9=
EXTT10=
EXTT11=
EXTT12=
PLAYORDER=
